<?xml version="1.0" encoding="iso-8859-1"?>
<!-- Generator: Adobe Illustrator 19.0.0, SVG Export Plug-In . SVG Version: 6.00 Build 0)  -->
<svg version="1.1" id="Capa_1" xmlns="http://www.w3.org/2000/svg" xmlns:xlink="http://www.w3.org/1999/xlink" x="0px" y="0px"
	 viewBox="0 0 512 512" style="enable-background:new 0 0 512 512;" xml:space="preserve">
<g>
	<g>
		<path d="M256,0C114.615,0,0,114.615,0,256s114.615,256,256,256c141.317-0.165,255.835-114.683,256-256
			C512,114.615,397.385,0,256,0z M256,490.667C126.397,490.667,21.333,385.603,21.333,256S126.397,21.333,256,21.333
			C385.542,21.48,490.52,126.458,490.667,256C490.667,385.603,385.603,490.667,256,490.667z"/>
	</g>
</g>
<g>
	<g>
		<path d="M256,53.333C144.07,53.333,53.333,144.07,53.333,256S144.07,458.667,256,458.667
			C367.879,458.543,458.543,367.879,458.667,256C458.667,144.07,367.93,53.333,256,53.333z M256,437.333
			c-100.148,0-181.333-81.186-181.333-181.333S155.852,74.667,256,74.667C356.101,74.778,437.222,155.899,437.333,256
			C437.333,356.148,356.148,437.333,256,437.333z"/>
	</g>
</g>
<g>
	<g>
		<path d="M320,256c13.43-10.072,21.333-25.88,21.333-42.667C341.333,183.878,317.455,160,288,160h-85.333
			c-5.891,0-10.667,4.776-10.667,10.667v170.667c0,5.891,4.776,10.667,10.667,10.667H288c16.787,0,32.594-7.904,42.667-21.333
			C348.34,307.103,343.564,273.673,320,256z M213.333,181.333H288c17.673,0,32,14.327,32,32c0,17.673-14.327,32-32,32h-74.667
			V181.333z M288,330.667h-74.667v-64H288c17.673,0,32,14.327,32,32C320,316.34,305.673,330.667,288,330.667z"/>
	</g>
</g>
<g>
	<g>
		<rect x="224" y="128" width="21.333" height="42.667"/>
	</g>
</g>
<g>
	<g>
		<rect x="266.667" y="128" width="21.333" height="42.667"/>
	</g>
</g>
<g>
	<g>
		<rect x="224" y="341.333" width="21.333" height="42.667"/>
	</g>
</g>
<g>
	<g>
		<rect x="266.667" y="341.333" width="21.333" height="42.667"/>
	</g>
</g>
<g>
	<g>
		<rect x="106.667" y="245.333" width="21.333" height="21.333"/>
	</g>
</g>
<g>
	<g>
		<rect x="384" y="245.333" width="21.333" height="21.333"/>
	</g>
</g>
<g>
</g>
<g>
</g>
<g>
</g>
<g>
</g>
<g>
</g>
<g>
</g>
<g>
</g>
<g>
</g>
<g>
</g>
<g>
</g>
<g>
</g>
<g>
</g>
<g>
</g>
<g>
</g>
<g>
</g>
</svg>
