<?xml version="1.0" encoding="utf-8"?>
<!-- Generator: Adobe Illustrator 22.1.0, SVG Export Plug-In . SVG Version: 6.00 Build 0)  -->
<svg version="1.1" id="Layer_1" xmlns="http://www.w3.org/2000/svg" xmlns:xlink="http://www.w3.org/1999/xlink" x="0px" y="0px"
	 viewBox="0 0 162.9 100.6" style="enable-background:new 0 0 162.9 100.6;" xml:space="preserve">
<style type="text/css">
	.st0{fill:#65717F;}
</style>
<g>
	<g>
		<polygon class="st0" points="134.9,40.2 162.9,0.2 131.7,0.2 120.2,18.5 		"/>
		<polygon class="st0" points="92.6,100.6 128.1,49.9 94.8,0.2 64.1,0.2 97,49.5 62.6,100.6 		"/>
		<polygon class="st0" points="134.1,58.7 119.3,79.9 132.4,100.6 162.5,100.6 		"/>
	</g>
	<g>
		<polygon class="st0" points="0,38.1 0,60.9 65.5,60.9 72.8,49 66.1,38.1 		"/>
		<path class="st0" d="M60.6,23.6L44.7,0H0v23.6C19.7,23.6,60.6,23.6,60.6,23.6z"/>
		<path class="st0" d="M0,76.8v23.3h43.5l15.7-23.3C59.2,76.8,18.5,76.8,0,76.8z"/>
	</g>
</g>
</svg>
