<svg version="1.1" id="Layer_1" xmlns="http://www.w3.org/2000/svg" xmlns:xlink="http://www.w3.org/1999/xlink" x="0px" y="0px"
	 viewBox="0 0 81.9 70.8" style="enable-background:new 0 0 81.9 70.8;" xml:space="preserve">
<g>
	<g>
		<path d="M42.3,48.9c0,11.6-8.6,20.6-20,20.6H5.9V28.3h16.5C33.7,28.3,42.3,37.3,42.3,48.9z M33.3,48.9
			c0-7.1-4.5-11.5-10.9-11.5h-7.1v23h7.1C28.8,60.4,33.3,55.9,33.3,48.9z"/>
	</g>
</g>
<g>
	<path d="M65,64.3H52.7l-1.7,5.2h-8.3l11.2-33h9.6l11.2,33h-8.3L65,64.3z M62.7,57.2l-3.9-12.1L55,57.2H62.7z"/>
</g>
<g>
	<path d="M61.8,31.5c-0.1,0-0.2,0-0.3,0c-6.4-0.3-9.3-7.5-12.1-14.4c-1.8-4.4-4.2-10.5-6.6-10.5c-2.1,0-3.2,1.3-5.6,5.2
		c-2,3.1-4.5,7.1-9,10.4c-5.1,3.7-9.8,0.7-12.6-1.1c-1.1-0.7-2.4-1.6-3.1-1.6c-1.4-0.1-2.7,0.7-5.4,2.4c-0.6,0.4-1.3,0.8-2,1.3
		c-1.6,1-3.6,0.5-4.6-1.1S0,18.5,1.6,17.5c0.7-0.4,1.3-0.8,1.9-1.2c3.3-2.1,5.9-3.8,9.6-3.4c2.4,0.2,4.4,1.5,6.2,2.7
		c3.1,2,3.9,2.2,5,1.3c3.5-2.6,5.5-5.8,7.3-8.6C34.2,4.2,36.9,0,42.9,0c6.9,0,10,7.8,12.8,14.7c1.7,4.3,4,10.1,6.2,10.2c0,0,0,0,0,0
		c0.6,0,2.3-2.5,3.1-3.6c2.7-3.9,6.4-9.1,13.7-9.1c1.8,0,3.3,1.5,3.3,3.3s-1.5,3.3-3.3,3.3c-3.5,0-5.5,2.5-8.2,6.3
		C68.3,28.1,65.9,31.5,61.8,31.5z"/>
</g>
</svg>
