<svg version="1.1"
	 xmlns="http://www.w3.org/2000/svg" xmlns:xlink="http://www.w3.org/1999/xlink" x="0px" y="0px" viewBox="0 0 540 160"
	 style="enable-background:new 0 0 540 160;" xml:space="preserve">
<g>
	<path style="fill:none;stroke:#0B50CD;stroke-width:2;stroke-miterlimit:10;" d="M2.869,84.775
		c4.667,2.667,10.667,4.751,17.333,0.751s20.667,2.062,24,5.396s11.333,2.683,16.667,2.016s10.667-7.997,15.333-8.663
		s6.667,16.668,14,16.668s15.333-12,24-14s16-19,22-19s23.333,29.666,26,29.666s8.666,0,15.333,0s13.333,17.168,19.333,18.501
		s17.333-2.25,35.333,1.083s22,40.542,44.667,40.542c22.666,0,34.666-58.729,63.999-58.729s50.001,6.636,62.667,2.636
		s21.334-19.35,30-19.35s6.666-10.007,19.333-10.674s11.333-16.005,34-21.338s13.667-38.669,45.667-42.669"/>
</g>
<circle style="fill:#0B50CD;" cx="532.535" cy="6.608" r="5"/>
</svg>
