<?xml version="1.0" encoding="utf-8"?>
<!-- Generator: Adobe Illustrator 19.1.1, SVG Export Plug-In . SVG Version: 6.00 Build 0)  -->
<svg version="1.1" id="Слой_1" xmlns="http://www.w3.org/2000/svg" xmlns:xlink="http://www.w3.org/1999/xlink" x="0px" y="0px"
	 viewBox="0 0 170.1 136.5" style="enable-background:new 0 0 170.1 136.5;" xml:space="preserve">
<path d="M154,0H16C7.2,0,0,7.2,0,16v71.2c0,8.8,7.2,16,16,16h12.1v28.3c0,2,1.1,3.7,2.9,4.5c0.7,0.3,1.4,0.5,2.1,0.5
	c1.2,0,2.3-0.4,3.3-1.2l37.1-32H154c8.8,0,16-7.2,16-16V16C170.1,7.2,162.9,0,154,0L154,0z M45.1,63.5c-7,0-12.7-5.7-12.7-12.7
	c0-7,5.7-12.7,12.7-12.7c7,0,12.7,5.7,12.7,12.7C57.8,57.7,52.1,63.5,45.1,63.5L45.1,63.5z M85,63.5c-7,0-12.7-5.7-12.7-12.7
	C72.3,43.7,78,38,85,38c7,0,12.7,5.7,12.7,12.7C97.8,57.7,92.1,63.5,85,63.5L85,63.5z M125,63.5c-7,0-12.7-5.7-12.7-12.7
	c0-7,5.7-12.7,12.7-12.7c7,0,12.7,5.7,12.7,12.7C137.7,57.7,132,63.5,125,63.5L125,63.5z M125,63.5"/>
</svg>
