<?xml version="1.0" encoding="utf-8"?>
<!-- Generator: Adobe Illustrator 22.1.0, SVG Export Plug-In . SVG Version: 6.00 Build 0)  -->
<svg version="1.1" id="Layer_1" xmlns="http://www.w3.org/2000/svg" xmlns:xlink="http://www.w3.org/1999/xlink" x="0px" y="0px"
	 viewBox="0 0 178.7 178.7" style="enable-background:new 0 0 178.7 178.7;" xml:space="preserve">
<style type="text/css">
	.st0{fill:#0B53D3;}
	.st1{fill:#FFFFFF;}
</style>
<circle class="st0" cx="89.3" cy="89.3" r="89.3"/>
<g>
	<polygon class="st1" points="105.6,81.3 131.2,44.7 102.7,44.7 92.1,61.4 	"/>
	<polygon class="st1" points="66.8,136.7 80.4,117.3 85.7,109 85.9,109.3 99.3,90.2 68.8,45.1 40.6,45.1 70.9,89.9 39.3,136.7 	"/>
	<polygon class="st1" points="104.8,98.3 91.3,117.7 103.3,136.7 130.9,136.7 	"/>
</g>
<g>
	<path class="st1" d="M25.2,78.1L16.8,80l-2.6-10.7l14.6-4.1h10v50.2H25.2V78.1z"/>
	<path class="st1" d="M123.4,90.4c0-14.1,9-25.9,23.1-25.9s23,11.7,23,25.9c0,14.1-8.9,25.9-23.1,25.9S123.4,104.7,123.4,90.4z
		 M155.7,90.4c0-7.9-3.8-13.7-9.2-13.7s-9.1,5.5-9.1,13.7c0,8,3.7,13.7,9.2,13.7S155.7,98.5,155.7,90.4z"/>
</g>
</svg>
