<?xml version="1.0" encoding="utf-8"?>
<!-- Generator: Adobe Illustrator 16.0.0, SVG Export Plug-In . SVG Version: 6.00 Build 0)  -->
<!DOCTYPE svg PUBLIC "-//W3C//DTD SVG 1.1//EN" "http://www.w3.org/Graphics/SVG/1.1/DTD/svg11.dtd">
<svg version="1.1" id="Layer_1" xmlns="http://www.w3.org/2000/svg" xmlns:xlink="http://www.w3.org/1999/xlink" x="0px" y="0px"
	 width="61px" height="47.137px" viewBox="0 0 61 47.137" enable-background="new 0 0 61 47.137" xml:space="preserve">
<g>
	<path d="M0,39.053C0,28.727,0,18.401,0,8.076C0.072,7.939,0.175,7.81,0.212,7.663c1.238-4.897,4.764-7.66,9.799-7.661
		c11.38-0.001,22.76-0.006,34.14,0.003c3.517,0.002,6.229,1.519,8.24,4.397c0.291,0.416,0.865,0.766,1.368,0.88
		c2.725,0.619,4.946,1.913,6.271,4.456c0.396,0.758,0.651,1.589,0.97,2.387c0,0.953,0,1.906,0,2.859
		c-0.086,0.259-0.204,0.513-0.255,0.779c-1.351,7.086-2.669,14.178-4.049,21.258c-1.042,5.349-6.777,10.081-12.255,10.094
		c-11.67,0.029-23.34,0.022-35.011,0.001c-4.152-0.008-7.758-2.754-8.984-6.732C0.308,39.938,0.149,39.497,0,39.053z M26.806,42.403
		c5.676,0,11.354,0.003,17.03-0.001c3.317-0.002,5.289-1.924,5.294-5.215c0.013-9.091,0.014-18.182-0.001-27.272
		c-0.005-3.234-1.983-5.186-5.201-5.188c-11.314-0.004-22.627-0.004-33.941,0c-3.271,0.001-5.241,1.972-5.245,5.275
		c-0.01,9.051-0.011,18.102,0,27.153c0.004,3.288,1.985,5.244,5.272,5.247C15.611,42.406,21.209,42.403,26.806,42.403z"/>
	<path fill-rule="evenodd" clip-rule="evenodd" d="M17.125,24.52c-1.468,0-2.936,0.016-4.404-0.005c-1.7-0.024-2.88-1.11-2.907-2.8
		C9.766,18.7,9.77,15.684,9.812,12.669c0.023-1.661,1.186-2.825,2.889-2.856c2.975-0.054,5.952-0.055,8.927-0.001
		c1.772,0.032,2.882,1.209,2.895,2.958c0.021,2.936,0.02,5.872,0.001,8.808c-0.012,1.831-1.137,2.92-2.994,2.939
		C20.062,24.532,18.593,24.52,17.125,24.52z"/>
	<path fill-rule="evenodd" clip-rule="evenodd" d="M26.596,36.196c-4.841,0-9.681,0.003-14.522-0.002
		c-1.713-0.002-2.317-0.596-2.33-2.252c-0.013-1.756,0.604-2.432,2.299-2.434c9.721-0.007,19.442-0.007,29.164,0
		c1.703,0.001,2.359,0.694,2.35,2.404c-0.009,1.643-0.646,2.28-2.319,2.282C36.357,36.2,31.477,36.196,26.596,36.196z"/>
	<path fill-rule="evenodd" clip-rule="evenodd" d="M35.641,14.631c-1.901,0-3.803,0.021-5.704-0.006
		c-1.635-0.023-2.268-0.707-2.268-2.358c0-1.653,0.621-2.33,2.265-2.338c3.803-0.021,7.605-0.022,11.408,0.002
		c1.574,0.01,2.203,0.696,2.215,2.275c0.014,1.679-0.609,2.391-2.212,2.417C39.443,14.655,37.542,14.631,35.641,14.631z"/>
	<path fill-rule="evenodd" clip-rule="evenodd" d="M35.709,19.964c1.901,0,3.803-0.014,5.704,0.005
		c1.492,0.014,2.123,0.684,2.144,2.209c0.022,1.658-0.572,2.432-2.048,2.446c-3.921,0.035-7.843,0.033-11.764,0.002
		c-1.494-0.012-2.087-0.76-2.077-2.414c0.01-1.547,0.626-2.228,2.1-2.243C31.749,19.949,33.729,19.964,35.709,19.964z"/>
</g>
</svg>
