<?xml version="1.0" encoding="utf-8"?>
<!-- Generator: Adobe Illustrator 19.1.1, SVG Export Plug-In . SVG Version: 6.00 Build 0)  -->
<svg version="1.1" id="Слой_1" xmlns="http://www.w3.org/2000/svg" xmlns:xlink="http://www.w3.org/1999/xlink" x="0px" y="0px"
	 viewBox="0 0 170.1 127.6" style="enable-background:new 0 0 170.1 127.6;" xml:space="preserve">
<g>
	<path d="M148.8,21.3V0H0v116.9c0,5.9,4.8,10.6,10.6,10.6h143.5c8.8,0,15.9-7.1,15.9-15.9V21.3H148.8z M138.2,116.9
		H10.6V10.6h127.6V116.9z M21.3,31.9h106.3v10.6H21.3V31.9z M85,53.1h42.5v10.6H85V53.1z M85,74.4h42.5V85H85V74.4z M85,95.7h31.9
		v10.6H85V95.7z M21.3,53.1h53.1v53.1H21.3V53.1z M21.3,53.1"/>
</g>
</svg>
