<?xml version="1.0" encoding="utf-8"?>
<!-- Generator: Adobe Illustrator 21.0.0, SVG Export Plug-In . SVG Version: 6.00 Build 0)  -->
<svg version="1.1" id="Слой_1" transform="rotate(45 50 50)"
	 xmlns="http://www.w3.org/2000/svg" xmlns:xlink="http://www.w3.org/1999/xlink" x="0px" y="0px" viewBox="0 0 24 24"
	 style="enable-background:new 0 0 24 24;" xml:space="preserve">
<style type="text/css">
	.st0{fill:none;}
</style>
<path class="st0" d="M24,24.5H0l0-24h24V24.5z"/>
<path d="M12,8.5l-4,4h3v9h2v-9h3L12,8.5z M3,21.5h6v-2H3v-14h18v14h-6v2h6c1.1,0,2-0.9,2-2v-14c0-1.1-0.9-2-2-2H3c-1.1,0-2,0.9-2,2
	v14C1,20.6,1.9,21.5,3,21.5z"/>
</svg>
