<svg width="579.9999999999999" height="399.99999999999994" xmlns="http://www.w3.org/2000/svg">
 <!-- Created with Method Draw - http://github.com/duopixel/Method-Draw/ -->

 <g>
  <title>background</title>
  <rect fill="#fff" id="canvas_background" height="402" width="582" y="-1" x="-1"/>
  <g display="none" overflow="visible" y="0" x="0" height="100%" width="100%" id="canvasGrid">
   <rect fill="url(#gridpattern)" stroke-width="0" y="0" x="0" height="100%" width="100%"/>
  </g>
 </g>
 <g>
  <title>Layer 1</title>
  <g stroke="null" transform="rotate(-179.71636962890625 287.7777404785157,199.99998474121094) " id="svg_6">
   <path stroke="null" id="svg_4" fill="none" d="m68.522973,-19.254791l438.509531,0l0,438.509531l-438.509531,0l0,-438.509531z"/>
   <path stroke="null" id="svg_5" d="m287.777738,273.084897l73.084922,-73.084922l-54.813691,0l0,-164.441074l-36.542461,0l0,164.441074l-54.813691,0l73.084922,73.084922zm164.441074,-237.525996l-109.627383,0l0,36.359749l109.627383,0l0,256.345363l-328.882148,0l0,-256.345363l109.627383,0l0,-36.359749l-109.627383,0c-20.098354,0 -36.542461,16.444107 -36.542461,36.542461l0,255.797226c0,20.098354 16.444107,36.542461 36.542461,36.542461l328.882148,0c20.098354,0 36.542461,-16.444107 36.542461,-36.542461l0,-255.797226c0,-20.098354 -16.444107,-36.542461 -36.542461,-36.542461z"/>
  </g>
 </g>
</svg>