<?xml version="1.0" encoding="utf-8"?>
<!-- Generator: Adobe Illustrator 21.0.0, SVG Export Plug-In . SVG Version: 6.00 Build 0)  -->
<svg version="1.1" id="Слой_1" xmlns="http://www.w3.org/2000/svg" xmlns:xlink="http://www.w3.org/1999/xlink" x="0px" y="0px"
	 viewBox="0 0 16 16" style="enable-background:new 0 0 16 16;" xml:space="preserve">
<style type="text/css">
	.st0{fill:#FFFFFF;}
</style>
<g>
	<g>
		<polygon class="st0" points="12.1,7.3 13.9,4.6 11.9,4.6 11.1,5.9 		"/>
		<polygon class="st0" points="9.2,11.4 10.2,9.9 10.6,9.3 10.6,9.4 11.6,8 9.4,4.7 7.3,4.7 9.5,7.9 7.2,11.4 		"/>
		<polygon class="st0" points="12,8.6 11,10 11.9,11.4 13.9,11.4 		"/>
	</g>
	<g>
		<polygon class="st0" points="2.1,7.2 2.1,8.7 6.4,8.7 6.8,7.9 6.4,7.2 		"/>
		<path class="st0" d="M6,6.3L5,4.7H2.1v1.5C3.4,6.3,6,6.3,6,6.3z"/>
		<path class="st0" d="M2.1,9.8v1.5H5l1-1.5C5.9,9.8,3.3,9.8,2.1,9.8z"/>
	</g>
</g>
</svg>
